<svg width="31" height="31" viewBox="0 0 31 31" fill="none" xmlns="http://www.w3.org/2000/svg">
<path d="M11.6249 24.5414C5.16659 26.4789 5.16659 21.3123 2.58325 20.6664M20.6666 28.4164V23.4177C20.715 22.8018 20.6318 22.1826 20.4225 21.6013C20.2131 21.0201 19.8825 20.49 19.4524 20.0464C23.5083 19.5944 27.7708 18.0573 27.7708 11.0048C27.7704 9.20139 27.0767 7.46716 25.8333 6.16103C26.4221 4.58326 26.3804 2.83931 25.717 1.29144C25.717 1.29144 24.1928 0.83936 20.6666 3.20311C17.7061 2.40076 14.5854 2.40076 11.6249 3.20311C8.09867 0.83936 6.5745 1.29144 6.5745 1.29144C5.91107 2.83931 5.86944 4.58326 6.45825 6.16103C5.2055 7.47685 4.51109 9.22675 4.52075 11.0435C4.52075 18.0444 8.78325 19.5814 12.8391 20.0852C12.4141 20.5243 12.0864 21.048 11.8772 21.6222C11.668 22.1963 11.582 22.8081 11.6249 23.4177V28.4164" stroke="white" stroke-width="1.5" stroke-linecap="round" stroke-linejoin="round"/>
</svg>
