<svg width="331" height="354" viewBox="0 0 331 354" fill="none" xmlns="http://www.w3.org/2000/svg">
<g clip-path="url(#clip0_677_2440)">
<path d="M1.59686 315.452C1.36974 318.047 1.22021 323.122 1.22021 325.33V354H332.22V18.6669C328.256 20.691 324.806 24.7727 324.75 24.0164C324.239 17.1354 324.701 9.49701 323.275 11.2559C321.969 12.8675 316.799 21.5909 308.381 28.6892C307.158 29.7208 306.597 29.9521 306.808 28.4499C307.018 26.9476 307.971 23.807 306.906 23.02C305.841 22.2331 302.627 23.4333 300.969 24.8275C296.245 28.8021 288.922 45.0179 287.79 40.8728C287.131 38.4602 286.816 33.7653 285.979 29.9246C285.733 28.7967 285.561 29.298 285.318 29.7926C284.828 30.7886 284.349 37.0901 271.688 46.1458C269.759 47.525 269.529 46.1821 269.479 44.9677C269.385 42.7095 269.233 40.4843 268.697 40.8206C268.237 41.1099 267.424 42.1956 266.077 44.4088C262.796 49.7987 258.698 67.2007 255.423 62.2451C254.397 60.692 255.568 55.3454 253.886 55.3942C253.302 55.4112 249.317 78.1525 245.519 68.2478C244.468 65.5078 244.563 51.9443 242.661 55.8163C240.263 60.6953 232.903 79.8232 230.966 74.871C230.649 74.0594 230.327 71.5104 229.225 73.1495L228.868 73.68C224.804 79.7269 220.922 85.5028 220.869 84.6544C220.646 81.0887 220.509 77.4742 220.074 77.8202C219.614 78.1869 218.743 79.3739 218.245 80.2468C216.598 83.1385 210.35 101.524 208.637 96.9959C208.259 95.9958 208.417 93.3795 207.695 92.7747C207.205 92.365 206.049 97.2309 203.935 102.94C203.318 104.608 203.297 103.821 203.185 102.834C202.939 100.686 203.083 96.3198 200.839 93.9928C200.329 93.4648 200.115 94.8619 199.342 97.0258C196.213 105.778 190.807 119.237 188.002 115.5C187.57 114.925 187.538 112.976 187.057 113.146C186.132 113.472 182.249 118.18 179.922 121.806C179.6 122.309 179.19 122.855 179.113 121.836C178.85 118.365 178.733 108.043 177.034 110.245C176.507 110.928 172.658 116.507 165.645 130.974C162.899 136.637 161.384 141.413 160.885 140.572C160.528 139.971 162.372 124.557 159.261 128.518C158.144 129.939 158.189 132.967 156.991 136.696C155.877 140.16 155.965 152.226 151.122 152.471C150.779 152.488 150.408 151.675 149.817 151.059C147.72 148.873 144.498 144.33 144.522 146.321C144.528 146.866 144.985 148.029 144.834 150.093C144.261 157.958 146.467 168.439 142.019 168.105C141.586 168.072 140.721 166.667 140.186 164.55C139.018 159.935 139.821 145.108 138.675 148.858C136.595 155.67 138.829 167.507 135.836 172.673C135.662 172.972 135.403 172.108 135.003 171.469C132.504 167.47 126.547 155.525 126.151 158.048C125.889 159.726 125.942 161.58 125.756 162.913C125.166 167.156 123.603 179.062 122.261 176.449C121.885 175.716 120.793 165.509 120.735 168.788C120.716 169.838 120.773 171.845 120.009 174.759C118.707 179.727 116.374 188.268 113.267 195.775C112.298 198.116 112.147 197.573 111.937 196.817L111.934 196.806C111.463 195.11 111.318 187.921 109.889 189.909C106.491 194.64 100.194 211.955 99.0175 208.014C98.2081 205.303 97.8048 202.571 97.4157 201.159C96.5089 197.869 95.3771 187.898 94.1879 190.658C93.8684 191.399 93.6361 194.633 92.4043 200.375C90.7635 208.024 89.7999 215.079 88.3116 218.631C87.8231 219.797 87.3429 219.622 86.8349 219.438L86.8197 219.432C85.7838 219.056 84.7015 218.642 83.6842 217.86C80.7475 215.603 77.629 207.675 76.4962 210.476C76.008 211.683 77.4188 217.291 80.3425 223.655C81.8059 226.841 83.9649 231.278 83.3878 235.526C83.3096 236.102 82.9365 236.444 82.384 236.557C81.8315 236.671 81.0866 236.654 80.3425 236.329C77.3027 235.003 73.6015 229.671 72.9879 231.714C72.5937 233.027 69.5961 251.617 69.5356 247.638C69.4244 240.33 69.799 233.203 69.1957 233.775C68.7805 234.169 67.9599 235.373 65.2287 239.997C58.9253 250.669 54.0111 258.193 53.4807 256.236C52.8707 253.984 52.0856 249.13 51.6546 247.056C51.2236 244.981 51.1583 245.667 50.8804 247.496C50.1633 252.216 49.7006 256.617 48.8742 261.248C47.4401 269.286 46.6842 276.045 45.7444 275.634C42.8093 274.354 37.1139 268.175 36.3412 270.25C34.6035 274.917 41.6022 288.701 30.1764 290.517C29.8299 290.572 30.4698 280.464 29.0623 283.153C24.9837 290.947 22.1202 296.787 16.3471 303.158C10.3855 309.738 5.94845 314.469 5.20945 313.9C4.91162 313.671 4.92841 312.997 4.98825 312.239C5.22044 309.295 5.70121 306.905 6.91202 301.419C7.83617 297.231 10.0712 286.785 9.02772 288.794C7.93418 290.9 4.94886 296.262 3.53787 304.233C2.69056 309.02 1.89291 312.069 1.59686 315.452Z" fill="url(#paint0_linear_677_2440)"/>
<path d="M-38.151 361.607C-38.5033 364.343 -38.8596 369.705 -38.9412 372.04L-40.0001 402.363L333.772 415.416L346.157 60.7459C341.606 62.7304 337.559 66.9114 337.524 66.1093C337.202 58.8114 338.005 50.7507 336.33 52.5549C334.796 54.2079 328.636 63.2305 318.868 70.4061C317.448 71.4489 316.807 71.6715 317.1 70.0909C317.393 68.5103 318.584 65.2261 317.411 64.3518C316.238 63.4775 312.564 64.6202 310.641 66.0295C305.16 70.047 296.29 86.909 295.166 82.4802C294.511 79.9025 294.329 74.9245 293.525 70.8293C293.289 69.6267 293.077 70.1501 292.784 70.6637C292.194 71.6977 291.419 78.3438 276.788 87.4223C274.559 88.805 274.349 87.3756 274.337 86.0893C274.315 83.6971 274.225 81.3376 273.608 81.6722C273.077 81.96 272.12 83.0762 270.517 85.364C266.612 90.9353 261.342 109.179 257.827 103.809C256.725 102.126 258.245 96.5167 256.345 96.5021C255.685 96.497 250.344 120.393 246.421 109.767C245.336 106.827 245.944 92.4856 243.653 96.5059C240.765 101.572 231.748 121.512 229.744 116.198C229.415 115.327 229.146 112.619 227.841 114.309L227.418 114.856C222.605 121.091 218.008 127.047 217.98 126.148C217.86 122.367 217.838 118.539 217.335 118.888C216.802 119.258 215.774 120.479 215.18 121.382C213.214 124.376 205.479 143.575 203.712 138.718C203.322 137.646 203.597 134.885 202.804 134.217C202.266 133.764 200.78 138.865 198.183 144.82C197.424 146.56 197.43 145.727 197.339 144.678C197.142 142.397 197.465 137.784 195.017 135.235C194.461 134.656 194.168 136.125 193.214 138.383C189.358 147.517 182.756 161.539 179.727 157.476C179.26 156.85 179.296 154.788 178.746 154.949C177.69 155.257 173.131 160.084 170.37 163.827C169.987 164.346 169.504 164.908 169.455 163.827C169.286 160.145 169.536 149.224 167.535 151.486C166.915 152.187 162.363 157.935 153.909 172.96C150.599 178.842 148.712 183.834 148.18 182.925C147.799 182.275 150.45 166.044 146.791 170.111C145.477 171.57 145.417 174.775 143.925 178.671C142.54 182.291 142.193 195.056 136.715 195.124C136.327 195.129 135.938 194.254 135.294 193.579C133.007 191.185 129.536 186.253 129.49 188.359C129.477 188.936 129.949 190.184 129.703 192.361C128.765 200.657 130.87 211.83 125.859 211.301C125.371 211.249 124.446 209.729 123.92 207.469C122.772 202.542 124.226 186.891 122.794 190.813C120.193 197.935 122.279 210.542 118.708 215.889C118.501 216.198 118.24 215.274 117.813 214.583C115.138 210.255 108.852 197.385 108.312 200.039C107.954 201.803 107.945 203.766 107.686 205.169C106.863 209.633 104.658 222.163 103.24 219.347C102.842 218.557 101.986 207.719 101.799 211.184C101.739 212.293 101.729 214.419 100.759 217.47C99.105 222.674 96.1558 231.616 92.3697 239.432C91.1888 241.871 91.0383 241.29 90.8293 240.483L90.8261 240.471C90.3566 238.658 90.4583 231.049 88.7719 233.096C84.7598 237.965 77.0092 256.03 75.8266 251.816C75.0128 248.916 74.6583 246.011 74.271 244.502C73.3686 240.987 72.4588 230.396 71.0139 233.268C70.6258 234.04 70.2441 237.451 68.641 243.476C66.5056 251.501 65.157 258.925 63.3451 262.623C62.7505 263.837 62.2147 263.633 61.6478 263.418L61.6309 263.411C60.475 262.972 59.2681 262.492 58.1483 261.625C54.9154 259.122 51.6867 250.614 50.3041 253.531C49.7082 254.789 51.0942 260.776 54.1607 267.623C55.6956 271.049 57.9696 275.827 57.1611 280.298C57.0515 280.904 56.6175 281.251 55.9895 281.349C55.3614 281.447 54.5209 281.4 53.6926 281.027C50.3089 279.505 46.3265 273.719 45.5581 275.856C45.0645 277.229 40.9929 296.773 41.0715 292.562C41.2159 284.828 41.9021 277.304 41.1997 277.886C40.7163 278.287 39.7452 279.527 36.4903 284.31C28.9783 295.349 23.1511 303.114 22.6244 301.022C22.0187 298.617 21.3116 293.452 20.9015 291.241C20.4914 289.03 20.3922 289.753 20.0109 291.677C19.0268 296.64 18.3418 301.276 17.2376 306.143C15.3213 314.587 14.2181 321.705 13.1719 321.235C9.90494 319.765 3.70169 313.005 2.75253 315.169C0.617937 320.037 8.01186 334.891 -4.95745 336.362C-5.3507 336.406 -4.25477 325.74 -5.94349 328.529C-10.8369 336.611 -14.2862 342.675 -21.0406 349.186C-28.0156 355.91 -33.2008 360.74 -34.0143 360.109C-34.3421 359.855 -34.2983 359.142 -34.2027 358.342C-33.8318 355.238 -33.2006 352.73 -31.6307 346.975C-30.4325 342.582 -27.5228 331.622 -28.7753 333.706C-30.0879 335.889 -33.6571 341.443 -35.5448 349.818C-36.6784 354.847 -37.6918 358.041 -38.151 361.607Z" fill="#5FBD7D"/>
<path d="M-0.775032 330.546C-1.52197 333.138 -2.67885 338.266 -3.11522 340.511L-8.77989 369.653L332.544 436L398.8 95.1399C394.313 96.4028 389.948 99.8602 390.04 99.0802C390.873 91.9834 392.858 84.3117 391.041 85.8139C389.376 87.1902 382.321 95.0212 372.238 100.549C370.772 101.352 370.149 101.475 370.662 99.9904C371.176 98.5055 372.779 95.504 371.837 94.4907C370.894 93.4774 367.342 94.0531 365.358 95.1381C359.701 98.2313 348.945 113.246 348.597 108.806C348.394 106.222 348.997 101.386 348.893 97.3144C348.862 96.1187 348.586 96.5938 348.237 97.0478C347.535 97.962 345.796 104.271 330.95 110.938C328.689 111.954 328.717 110.543 328.906 109.298C329.255 106.984 329.537 104.691 328.919 104.926C328.387 105.128 327.335 106.069 325.508 108.048C321.06 112.869 313.396 129.737 310.998 124.043C310.246 122.259 312.51 117.058 310.767 116.771C310.161 116.671 301.558 138.989 299.598 128.159C299.056 125.163 301.834 111.396 299.107 114.95C295.671 119.429 284.302 137.397 283.284 131.975C283.117 131.086 283.288 128.431 281.828 129.876L281.356 130.343C275.97 135.675 270.825 140.768 270.938 139.895C271.412 136.226 271.985 132.525 271.469 132.789C270.922 133.07 269.789 134.102 269.104 134.889C266.834 137.499 256.758 154.935 255.886 149.989C255.694 148.896 256.374 146.269 255.749 145.509C255.325 144.994 253.171 149.709 249.863 155.088C248.897 156.66 249.031 155.856 249.11 154.83C249.282 152.597 250.293 148.188 248.438 145.373C248.017 144.734 247.52 146.111 246.295 148.156C241.339 156.425 233.105 169.022 230.951 164.662C230.62 163.99 230.972 162.003 230.442 162.079C229.424 162.226 224.489 166.233 221.373 169.452C220.942 169.898 220.411 170.372 220.533 169.32C220.948 165.739 222.867 155.224 220.68 157.122C220.001 157.71 214.93 162.609 204.839 175.909C200.889 181.115 198.383 185.666 198.035 184.712C197.786 184.029 202.733 168.73 198.742 172.133C197.309 173.354 196.758 176.441 194.785 179.991C192.952 183.288 190.659 195.571 185.616 194.849C185.259 194.798 185.037 193.897 184.549 193.152C182.819 190.51 180.394 185.247 180.025 187.275C179.924 187.831 180.165 189.104 179.602 191.172C177.457 199.052 177.661 210.148 173.14 208.916C172.7 208.797 172.086 207.194 171.952 204.936C171.66 200.011 175.417 185.1 173.495 188.683C170.004 195.19 169.969 207.669 165.861 212.321C165.624 212.59 165.527 211.659 165.241 210.93C163.454 206.364 159.671 193.028 158.765 195.514C158.162 197.166 157.851 199.061 157.396 200.38C155.949 204.574 151.985 216.362 151.118 213.438C150.875 212.618 151.766 202.023 151.057 205.345C150.831 206.408 150.492 208.459 149.129 211.268C146.805 216.057 142.712 224.272 138.025 231.279C136.563 233.465 136.514 232.882 136.447 232.073L136.446 232.06C136.295 230.242 137.566 222.905 135.7 224.64C131.261 228.768 121.346 245.105 120.912 240.864C120.613 237.946 120.737 235.088 120.615 233.575C120.33 230.049 121.133 219.687 119.361 222.254C118.885 222.943 118.007 226.184 115.602 231.774C112.399 239.22 110.011 246.198 107.775 249.51C107.041 250.598 106.58 250.324 106.092 250.034L106.078 250.025C105.084 249.435 104.05 248.798 103.155 247.799C100.573 244.916 98.9235 236.232 97.2021 238.852C96.4601 239.981 96.8068 245.965 98.5642 253.02C99.4439 256.551 100.794 261.494 99.359 265.697C99.1647 266.266 98.7123 266.539 98.1202 266.544C97.5281 266.548 96.7633 266.382 96.0601 265.903C93.1874 263.946 90.4244 257.783 89.388 259.737C88.7221 260.993 81.9579 279.288 82.6817 275.232C84.011 267.78 85.8055 260.611 85.0702 261.072C84.5642 261.39 83.4802 262.449 79.7502 266.601C71.1416 276.186 64.5874 282.849 64.4272 280.753C64.243 278.342 64.3926 273.251 64.358 271.056C64.3234 268.861 64.1206 269.545 63.4726 271.348C61.8006 276.002 60.4539 280.383 58.6867 284.925C55.6197 292.808 53.5049 299.526 52.6167 298.921C49.8432 297.031 45.1909 289.609 43.9841 291.563C41.2701 295.959 45.7636 311.372 33.6226 310.928C33.2544 310.915 35.9116 300.768 33.9288 303.219C28.1832 310.324 24.0763 315.687 16.8643 321.006C9.41676 326.499 3.90644 330.419 3.2568 329.693C2.99497 329.4 3.14548 328.718 3.35706 327.959C4.17807 325.013 5.146 322.681 7.47862 317.347C9.25899 313.275 13.6277 303.105 12.1547 304.938C10.611 306.859 6.47325 311.711 3.44328 319.53C1.62374 324.226 0.19859 327.167 -0.775032 330.546Z" fill="#3C7875"/>
</g>
<defs>
<linearGradient id="paint0_linear_677_2440" x1="93.7336" y1="-109.162" x2="228.099" y2="474.27" gradientUnits="userSpaceOnUse">
<stop offset="0.19864" stop-color="#92C660"/>
<stop offset="0.707189" stop-color="#85C170"/>
</linearGradient>
<clipPath id="clip0_677_2440">
<rect width="331" height="354" fill="white"/>
</clipPath>
</defs>
</svg>
