<svg width="31" height="31" viewBox="0 0 31 31" fill="none" xmlns="http://www.w3.org/2000/svg">
<path d="M22.6041 8.396H22.617M9.04159 2.5835H21.9583C25.5251 2.5835 28.4166 5.47499 28.4166 9.04183V21.9585C28.4166 25.5253 25.5251 28.4168 21.9583 28.4168H9.04159C5.47475 28.4168 2.58325 25.5253 2.58325 21.9585V9.04183C2.58325 5.47499 5.47475 2.5835 9.04159 2.5835ZM20.6666 14.6864C20.826 15.7614 20.6424 16.8593 20.1419 17.8239C19.6413 18.7885 18.8494 19.5707 17.8787 20.0593C16.908 20.5479 15.8079 20.718 14.735 20.5453C13.662 20.3727 12.6709 19.8661 11.9024 19.0977C11.134 18.3292 10.6274 17.338 10.4548 16.2651C10.2821 15.1922 10.4522 14.0921 10.9408 13.1214C11.4293 12.1507 12.2116 11.3587 13.1762 10.8582C14.1408 10.3577 15.2387 10.1741 16.3137 10.3335C17.4102 10.4961 18.4254 11.0071 19.2092 11.7909C19.993 12.5747 20.504 13.5899 20.6666 14.6864Z" stroke="white" stroke-width="1.5" stroke-linecap="round" stroke-linejoin="round"/>
</svg>
